<svg xmlns="http://www.w3.org/2000/svg" xmlns:xlink="http://www.w3.org/1999/xlink" version="1.1" x="0px" y="0px" viewBox="2 -2 100 125" style="enable-background:new 2 -2 100 100;" xml:space="preserve"><g><path d="M80,22H65.2v-2.6c0-3.1-2.5-5.6-5.6-5.6H44.3c-3.1,0-5.6,2.5-5.6,5.6V22H23.8c-1.4,0-2.6,1.2-2.6,2.6s1.2,2.6,2.6,2.6h3.8   v45.7c0,5.2,4.2,9.4,9.4,9.4h30c5.2,0,9.4-4.2,9.4-9.4V27.1h3.8c1.4,0,2.6-1.2,2.6-2.6S81.6,22,80,22z M44.3,18.8h15.3   c0.3,0,0.6,0.3,0.6,0.6V22H43.7v-2.6C43.7,19.1,44,18.8,44.3,18.8z M32.7,72.8V27.1h38.4v45.7c0,2.3-1.9,4.2-4.2,4.2h-30   C34.6,76.9,32.7,75.1,32.7,72.8z"/><path d="M51.9,70c1.4,0,2.5-1.1,2.5-2.6V36.6c0-1.4-1.1-2.6-2.5-2.6s-2.6,1.2-2.6,2.6v30.9C49.3,68.9,50.5,70,51.9,70z"/><path d="M63.2,70c1.4,0,2.6-1.2,2.6-2.6V36.6c0-1.4-1.2-2.6-2.6-2.6c-1.4,0-2.6,1.2-2.6,2.6v30.9C60.8,69,61.9,70,63.2,70z"/><path d="M40.7,70c1.4,0,2.6-1.2,2.6-2.6V36.6c0-1.4-1.2-2.6-2.6-2.6s-2.6,1.2-2.6,2.6v30.9C38.1,68.9,39.2,70,40.7,70z"/></g></svg>
